<?xml version="1.0" encoding="utf-8"?>
<!-- Generator: Adobe Illustrator 23.0.3, SVG Export Plug-In . SVG Version: 6.00 Build 0)  -->
<svg version="1.1" id="Layer_1" xmlns="http://www.w3.org/2000/svg" xmlns:xlink="http://www.w3.org/1999/xlink" x="0px" y="0px"
	 viewBox="0 0 89.5 89.5" style="enable-background:new 0 0 89.5 89.5;" xml:space="preserve">
<style type="text/css">
	.st0{fill:none;stroke:#D5E3E1;stroke-width:1.7044;stroke-linejoin:round;}
	.st1{fill:none;stroke:#D5E3E1;stroke-width:4.0413;stroke-linejoin:round;}
	.st2{fill:#D5E3E1;stroke:#D5E3E1;stroke-width:0.1928;stroke-miterlimit:10;}
	.st3{fill:#D5E3E1;stroke:#D5E3E1;stroke-width:0.8522;}
</style>
<g>
	<title>Artboard 1</title>
	<g id="Group_11_1_">
		<g id="Ellipse_2_1_">
			<circle id="Ellipse_2-2_1_" class="st0" cx="45" cy="53.6" r="24.2"/>
			<circle id="Ellipse_3_1_" class="st1" cx="45" cy="53.6" r="22.4"/>
		</g>
		<g id="Ellipse_3-2_1_">
			<circle id="Ellipse_4_1_" class="st0" cx="45" cy="36" r="15.4"/>
			<circle id="Ellipse_5_1_" class="st0" cx="45.1" cy="36" r="14.2"/>
		</g>
		<g id="Ellipse_4-2_1_">
			<circle id="Ellipse_7_1_" class="st2" cx="45" cy="74.7" r="11"/>
		</g>
		<path id="Path_9_1_" class="st3" d="M53.3,9.9l-2.3,6c-0.3,0.7,0.9,1,1.2,0.3l2.3-6C54.7,9.5,53.6,9.2,53.3,9.9z"/>
		<path id="Path_11_1_" class="st3" d="M67.1,20.6l-5.7,3.2c-0.7,0.4-0.1,1.4,0.6,1l5.7-3.2C68.4,21.2,67.8,20.2,67.1,20.6z"/>
		<path id="Path_9-2_1_" class="st3" d="M61.1,14.1L56.9,19c-0.5,0.6,0.5,1.3,1,0.7l4.2-4.9C62.6,14.2,61.6,13.5,61.1,14.1z"/>
		<path id="Path_16_1_" class="st3" d="M22.4,21.6l5.7,3.2c0.7,0.4,1.3-0.7,0.6-1L23,20.6c-0.3-0.1-0.7,0-0.8,0.3
			C22.1,21.1,22.2,21.4,22.4,21.6z"/>
		<path id="Path_17_1_" class="st3" d="M28,14.8l4.3,4.9c0.5,0.6,1.3-0.3,0.9-0.9L28.9,14C28.4,13.4,27.5,14.3,28,14.8L28,14.8z"/>
		<path id="Path_18_1_" class="st3" d="M35.6,10.2l2.3,6c0.3,0.7,1.4,0.4,1.2-0.3l-2.3-6C36.5,9.2,35.4,9.5,35.6,10.2z"/>
		<path id="Path_19_1_" class="st3" d="M44.5,8.6V15c0,0.3,0.3,0.6,0.6,0.6c0.3,0,0.6-0.3,0.6-0.6V8.6C45.6,8.2,45.4,8,45,8
			C44.7,8,44.5,8.2,44.5,8.6z"/>
		<path id="Path_20_1_" class="st3" d="M44.5,4.8v6.4c0,0.3,0.3,0.6,0.6,0.6c0.3,0,0.6-0.3,0.6-0.6V4.8c0-0.3-0.3-0.6-0.6-0.6
			C44.7,4.2,44.5,4.5,44.5,4.8z"/>
		<path id="Path_19-2_1_" class="st3" d="M22.6,29.2l-6.3-1.1c-0.3-0.1-0.6,0.2-0.7,0.5s0.2,0.6,0.5,0.7l0,0l6.3,1.1
			c0.3,0.1,0.6-0.2,0.7-0.5C23.1,29.5,22.9,29.2,22.6,29.2z"/>
		<path id="Path_20-2_1_" class="st3" d="M26.3,29.8l-6.3-1.1c-0.3-0.1-0.6,0.2-0.7,0.5c-0.1,0.3,0.2,0.6,0.5,0.7l6.3,1.1
			c0.3,0.1,0.6-0.2,0.7-0.5C26.8,30.2,26.6,29.8,26.3,29.8L26.3,29.8z"/>
		<path id="Path_19-3_1_" class="st3" d="M66.9,29.9c0.1,0.3,0.4,0.5,0.7,0.5c0,0,0,0,0,0l6.3-1.1c0.3-0.1,0.5-0.4,0.5-0.7
			s-0.4-0.5-0.7-0.5l-6.3,1.1C67.1,29.2,66.9,29.5,66.9,29.9C66.9,29.9,66.9,29.9,66.9,29.9z"/>
		<path id="Path_20-3_1_" class="st3" d="M63.3,30.5c0.1,0.3,0.4,0.5,0.7,0.5c0,0,0,0,0,0l6.3-1.1c0.3-0.1,0.5-0.4,0.5-0.7
			c-0.1-0.3-0.4-0.5-0.7-0.5l-6.3,1.1C63.4,29.8,63.2,30.2,63.3,30.5C63.3,30.5,63.3,30.5,63.3,30.5z"/>
		<path class="st2" d="M51.7,37.3c-0.1,3.6-3,6.7-6.7,6.7c-3.7,0-6.6-3-6.7-6.7c0-0.8-1.3-0.8-1.3,0c0.1,4.3,3.6,8,8,8
			c4.4,0,7.9-3.6,8-8C53,36.5,51.8,36.5,51.7,37.3z"/>
	</g>
</g>
</svg>
