<?xml version="1.0" encoding="utf-8"?>
<!-- Generator: Adobe Illustrator 23.0.3, SVG Export Plug-In . SVG Version: 6.00 Build 0)  -->
<svg version="1.1" id="Layer_1" xmlns="http://www.w3.org/2000/svg" xmlns:xlink="http://www.w3.org/1999/xlink" x="0px" y="0px"
	 viewBox="0 0 1299.8 450.6" style="enable-background:new 0 0 1299.8 450.6;" xml:space="preserve">
<style type="text/css">
	.st0{fill:none;stroke:#D5E3E1;stroke-width:8.8382;stroke-linejoin:round;}
	.st1{fill:none;stroke:#D5E3E1;stroke-width:20.9554;stroke-linejoin:round;}
	.st2{fill:#D5E3E1;stroke:#D5E3E1;stroke-miterlimit:10;}
	.st3{fill:#D5E3E1;stroke:#D5E3E1;stroke-width:4.4191;}
	.st4{enable-background:new    ;}
	.st5{fill:#D5E3E1;}
</style>
<g id="Group_11" transform="translate(0.251 0.25)">
	<g id="Ellipse_2" transform="translate(3.114 14.745)">
		<circle id="Ellipse_2-2" class="st0" cx="258.2" cy="255.7" r="125.6"/>
		<circle id="Ellipse_3" class="st1" cx="258.2" cy="255.7" r="116.2"/>
	</g>
	<g id="Ellipse_3-2" transform="translate(8.293 8.624)">
		<circle id="Ellipse_4" class="st0" cx="253" cy="170.8" r="79.8"/>
		<circle id="Ellipse_5" class="st0" cx="253" cy="170.8" r="73.7"/>
	</g>
	<g id="Ellipse_4-2" transform="translate(10.877 34.876)">
		<circle id="Ellipse_7" class="st2" cx="250.4" cy="344.9" r="57"/>
	</g>
	<path id="Path_9" class="st3" d="M304.1,43.9l-11.8,31.3c-1.4,3.7,4.6,5.3,6,1.6l11.8-31.3C311.5,41.8,305.5,40.2,304.1,43.9z"/>
	<path id="Path_11" class="st3" d="M375.7,99.1l-29.8,16.7c-3.5,1.9-0.4,7.3,3.1,5.3l29.8-16.7C382.3,102.5,379.2,97.1,375.7,99.1z"
		/>
	<path id="Path_9_1_" class="st3" d="M344.6,65.4L323,90.9c-2.6,3.1,2.5,6.6,5.1,3.6l21.6-25.5C352.3,65.9,347.2,62.4,344.6,65.4z"
		/>
	<path id="Path_16" class="st3" d="M143.7,104.4l29.8,16.7c3.5,1.9,6.6-3.4,3.1-5.3l-29.8-16.7c-1.6-0.7-3.4,0-4.1,1.5
		C142.1,102,142.5,103.6,143.7,104.4z"/>
	<path id="Path_17" class="st3" d="M173,69.4L195.1,95c2.7,3,7-1.4,4.4-4.4L177.4,65C174.7,62,170.4,66.4,173,69.4L173,69.4z"/>
	<path id="Path_18" class="st3" d="M212.5,45.5l11.8,31.3c1.4,3.7,7.4,2.1,6-1.6l-11.8-31.3C217,40.2,211.1,41.8,212.5,45.5z"/>
	<path id="Path_19" class="st3" d="M258.2,36.9v33.3c0,1.7,1.4,3.1,3.1,3.1s3.1-1.4,3.1-3.1V36.9c0-1.7-1.4-3.1-3.1-3.1
		C259.6,33.8,258.2,35.2,258.2,36.9z"/>
	<path id="Path_20" class="st3" d="M258.2,17.5v33.3c0,1.7,1.4,3.1,3.1,3.1s3.1-1.4,3.1-3.1V17.5c0-1.7-1.4-3.1-3.1-3.1
		S258.2,15.8,258.2,17.5z"/>
	<path id="Path_19_1_" class="st3" d="M144.7,143.8l-32.9-5.6c-1.7-0.3-3.3,0.8-3.6,2.5c-0.3,1.7,0.8,3.3,2.5,3.6l32.8,5.6
		c1.7,0.3,3.3-0.9,3.6-2.5C147.5,145.6,146.4,144.1,144.7,143.8z"/>
	<path id="Path_20_1_" class="st3" d="M163.8,147l-32.9-5.6c-1.7-0.3-3.3,0.9-3.6,2.5s0.8,3.3,2.5,3.6l32.8,5.6
		c1.7,0.3,3.3-0.9,3.6-2.5C166.6,148.9,165.5,147.3,163.8,147z"/>
	<path id="Path_19_2_" class="st3" d="M374.8,147.3c0.3,1.7,1.9,2.8,3.6,2.5l32.9-5.6c1.7-0.3,2.8-1.9,2.5-3.6
		c-0.3-1.7-1.9-2.8-3.6-2.5l-32.9,5.6C375.7,144.1,374.5,145.6,374.8,147.3z"/>
	<path id="Path_20_2_" class="st3" d="M355.7,150.6c0.3,1.7,1.9,2.8,3.6,2.5l32.9-5.6c1.7-0.3,2.8-1.9,2.5-3.6
		c-0.3-1.7-1.9-2.8-3.6-2.5l-32.9,5.6C356.6,147.3,355.4,148.9,355.7,150.6z"/>
	<g>
		<g>
			<path class="st2" d="M296,186.2c-0.3,18.9-15.5,34.7-34.7,34.7c-19.1,0-34.3-15.8-34.7-34.7c-0.1-4.3-6.7-4.3-6.6,0
				c0.4,22.4,18.5,41.3,41.3,41.3c22.8,0,40.9-18.8,41.3-41.3C302.7,181.9,296.1,181.9,296,186.2L296,186.2z"/>
		</g>
	</g>
</g>
<g class="st4">
	<path class="st5" d="M573.7,170.1l-58.1,93.3l-13.3,75.5h-23.6l13.3-74.7l-26.5-94h26.8l8.9,35.2c2.2,8.4,6.3,29.4,7,35.2
		c2.7-6,14.2-26.8,19.3-35.4l20.5-35H573.7z"/>
	<path class="st5" d="M586.3,341.5c-22.7,0-37.6-15.7-37.6-48.5c0-51.1,23.9-83.4,55.7-83.4c22.2,0,37.6,15.4,37.6,46.8
		C642,308.3,619.1,341.5,586.3,341.5z M618.3,259.1c0-17.8-6-27.2-17.4-27.2c-16.9,0-28.9,26.8-28.9,60.3c0,18.1,6,27.2,17.1,27.2
		C607.5,319.3,618.3,289.7,618.3,259.1z"/>
	<path class="st5" d="M732.8,338.9h-23.1l1.4-8.7c-5.5,6.3-14.7,11.3-24.6,11.3c-19,0-27.5-9.6-27.5-28.9c0-5.3,0.7-12.1,1.9-18.6
		l14.5-81.7h23.1l-13.7,77.9c-1,5.8-1.7,10.6-1.7,14.5c0,10.6,3.1,14.9,11.6,14.9c7.2,0,14.5-4.1,20.5-11.6l16.9-95.7h23.1
		L732.8,338.9z"/>
	<path class="st5" d="M799.6,341c-20.7,0-35.2-12.1-43.1-27l20.7-14.5c6,13,15.2,18.6,25.6,18.6c14.2,0,23.6-10.4,23.6-25.6
		c0-10.1-5.3-19.5-21.9-32.1c-14.7-11.3-26.3-24.6-26.3-43.4c0-28.9,19.8-49.7,48.5-49.7c18.1,0,31.8,8,39.5,22.9l-20,14.9
		c-6-10.4-12.8-14.5-21.9-14.5c-12.5,0-21.7,8.2-21.7,21.7c0,9.4,4.8,16.4,19.3,28c16.2,12.8,29.2,27,29.2,48.2
		C851,319.6,831.9,341,799.6,341z"/>
	<path class="st5" d="M941.6,338.9h-23.1l1.4-8.7c-5.5,6.3-14.7,11.3-24.6,11.3c-19,0-27.5-9.6-27.5-28.9c0-5.3,0.7-12.1,1.9-18.6
		l14.5-81.7h23.1l-13.7,77.9c-1,5.8-1.7,10.6-1.7,14.5c0,10.6,3.1,14.9,11.6,14.9c7.2,0,14.5-4.1,20.5-11.6l16.9-95.7H964
		L941.6,338.9z"/>
	<path class="st5" d="M994.9,338.9h-23.1l22.4-126.6h23.1L994.9,338.9z M1025.7,178.3c0,7.7-6.5,14.2-14.2,14.2
		c-8,0-14.5-6.5-14.5-14.2c0-8,6.5-14.5,14.5-14.5C1019.2,163.9,1025.7,170.4,1025.7,178.3z"/>
	<path class="st5" d="M1079.5,314.3l-6.5,21.5c-6,3.6-12.3,5.8-21,5.8c-16.9,0-22.9-11.8-19.3-32.3L1046,234h-13.7l3.9-21.7h13.7
		l6.5-36.9l25.3-12.3l-8.7,49.2h24.3l-3.9,21.7h-24.3l-13,73c-1.4,8,1.4,12.5,7.7,12.5C1069.8,319.6,1075.6,317.2,1079.5,314.3z"/>
	<path class="st5" d="M1185.3,275.2c-0.2,2.2-1,5.8-1.4,8.2h-66.3c-2.2,25.1,5.1,35.9,18.6,35.9c9.9,0,16.9-3.1,24.3-9.4l12.1,14.7
		c-9.9,9.6-23.6,16.9-39.8,16.9c-25.8,0-38.6-18.1-38.6-47.7c0-56.2,26-84.1,55-84.1c21.9,0,37.8,16.2,37.4,49.2
		C1186.5,263.9,1186,269.4,1185.3,275.2z M1163.1,263.4c2.2-18.8-3.6-32.1-16.6-32.1c-11.8,0-21,10.4-26,32.1H1163.1z"/>
</g>
</svg>
