<?xml version="1.0" encoding="utf-8"?>
<!-- Generator: Adobe Illustrator 23.0.3, SVG Export Plug-In . SVG Version: 6.00 Build 0)  -->
<svg version="1.1" id="Layer_1" xmlns="http://www.w3.org/2000/svg" xmlns:xlink="http://www.w3.org/1999/xlink" x="0px" y="0px"
	 viewBox="0 0 55.2 54.7" style="enable-background:new 0 0 55.2 54.7;" xml:space="preserve">
<style type="text/css">
	.st0{fill:none;stroke:#658F93;stroke-width:1.1368;stroke-linejoin:round;}
	.st1{fill:none;stroke:#658F93;stroke-width:2.6953;stroke-linejoin:round;}
	.st2{fill:#658F93;}
	.st3{fill:#658F93;stroke:#658F93;stroke-width:0.5684;}
</style>
<g id="Group_11" transform="translate(0.251 0.25)">
	<g id="Ellipse_2" transform="translate(3.114 14.745)">
		<circle id="Ellipse_2-2" class="st0" cx="31.7" cy="18.3" r="16.2"/>
		<circle id="Ellipse_3" class="st1" cx="31.7" cy="18.4" r="14.9"/>
	</g>
	<g id="Ellipse_3-2" transform="translate(8.293 8.624)">
		<circle id="Ellipse_4" class="st0" cx="26.6" cy="12.8" r="10.3"/>
		<circle id="Ellipse_5" class="st0" cx="26.6" cy="12.8" r="9.5"/>
	</g>
	<g id="Ellipse_4-2" transform="translate(10.877 34.876)">
		<circle id="Ellipse_7" class="st2" cx="24" cy="12.3" r="7.3"/>
	</g>
	<path id="Path_9" class="st3" d="M40.4,4l-1.5,4c-0.2,0.5,0.6,0.7,0.8,0.2l1.5-4C41.3,3.7,40.5,3.5,40.4,4z"/>
	<path id="Path_11" class="st3" d="M49.6,11.1l-3.8,2.1c-0.4,0.2,0,0.9,0.4,0.7l3.8-2.1C50.4,11.5,50,10.8,49.6,11.1z"/>
	<path id="Path_9_1_" class="st3" d="M45.6,6.7L42.8,10c-0.3,0.4,0.3,0.8,0.7,0.5l2.8-3.3C46.6,6.8,45.9,6.3,45.6,6.7z"/>
	<path id="Path_16" class="st3" d="M19.7,11.7l3.8,2.1c0.4,0.3,0.8-0.4,0.4-0.7l-3.8-2.1c-0.2-0.1-0.4,0-0.5,0.2
		C19.5,11.4,19.6,11.6,19.7,11.7z"/>
	<path id="Path_17" class="st3" d="M23.5,7.2l2.8,3.3c0.3,0.4,0.9-0.2,0.6-0.6l-2.8-3.3C23.7,6.3,23.2,6.9,23.5,7.2L23.5,7.2z"/>
	<path id="Path_18" class="st3" d="M28.6,4.2l1.5,4C30.3,8.7,31,8.5,30.9,8l-1.5-4C29.2,3.5,28.4,3.7,28.6,4.2z"/>
	<path id="Path_19" class="st3" d="M34.5,3.1v4.3c0,0.2,0.2,0.4,0.4,0.4c0.2,0,0.4-0.2,0.4-0.4V3.1c0-0.2-0.2-0.4-0.4-0.4
		C34.6,2.7,34.5,2.8,34.5,3.1z"/>
	<path id="Path_20" class="st3" d="M34.5,0.6v4.3c0,0.2,0.2,0.4,0.4,0.4c0.2,0,0.4-0.2,0.4-0.4V0.6c0-0.2-0.2-0.4-0.4-0.4
		C34.6,0.2,34.5,0.3,34.5,0.6z"/>
	<path id="Path_19_1_" class="st3" d="M19.9,16.8l-4.2-0.7c-0.2,0-0.4,0.1-0.5,0.3c0,0.2,0.1,0.4,0.3,0.5l4.2,0.7
		c0.2,0,0.4-0.1,0.5-0.3C20.2,17,20.1,16.8,19.9,16.8z"/>
	<path id="Path_20_1_" class="st3" d="M22.3,17.2l-4.2-0.7c-0.2,0-0.4,0.1-0.5,0.3c0,0.2,0.1,0.4,0.3,0.5l4.2,0.7
		c0.2,0,0.4-0.1,0.5-0.3C22.7,17.5,22.5,17.3,22.3,17.2z"/>
	<path id="Path_19_2_" class="st3" d="M49.5,17.3c0,0.2,0.2,0.4,0.5,0.3l4.2-0.7c0.2,0,0.4-0.2,0.3-0.5c0-0.2-0.2-0.4-0.5-0.3
		l-4.2,0.7C49.6,16.8,49.4,17,49.5,17.3z"/>
	<path id="Path_20_2_" class="st3" d="M47,17.7c0,0.2,0.2,0.4,0.5,0.3l4.2-0.7c0.2,0,0.4-0.2,0.3-0.5c0-0.2-0.2-0.4-0.5-0.3
		l-4.2,0.7C47.1,17.3,47,17.5,47,17.7z"/>
	<g>
		<g>
			<path class="st2" d="M39.3,22.3c-0.3,5.7-8.6,5.7-8.9,0c0-0.5-0.9-0.5-0.9,0c0.2,2.9,2.3,5.3,5.3,5.3c3,0,5.2-2.4,5.3-5.3
				C40.2,21.7,39.4,21.7,39.3,22.3L39.3,22.3z"/>
		</g>
	</g>
</g>
</svg>
