<?xml version="1.0" encoding="utf-8"?>
<!-- Generator: Adobe Illustrator 23.0.3, SVG Export Plug-In . SVG Version: 6.00 Build 0)  -->
<svg version="1.1" id="Layer_1" xmlns="http://www.w3.org/2000/svg" xmlns:xlink="http://www.w3.org/1999/xlink" x="0px" y="0px"
	 viewBox="0 0 1088.91 424.5" style="enable-background:new 0 0 1088.91 424.5;" xml:space="preserve">
<style type="text/css">
	.st0{fill:none;stroke:#658F93;stroke-width:8.8382;stroke-linejoin:round;}
	.st1{fill:none;stroke:#658F93;stroke-width:20.9554;stroke-linejoin:round;}
	.st2{fill:#658F93;}
	.st3{fill:#658F93;stroke:#658F93;stroke-width:4.4191;}
	.st4{fill:#85B0B4;}
	.st5{font-family:'InterstateCondensed-Italic';}
	.st6{font-size:241.0634px;}
</style>
<g id="Group_11" transform="translate(0.251 0.25)">
	<g id="Ellipse_2" transform="translate(3.114 14.745)">
		<circle id="Ellipse_2-2" class="st0" cx="151.88" cy="243.22" r="125.58"/>
		<circle id="Ellipse_3" class="st1" cx="151.88" cy="243.23" r="116.17"/>
	</g>
	<g id="Ellipse_3-2" transform="translate(8.293 8.624)">
		<circle id="Ellipse_4" class="st0" cx="146.7" cy="158.31" r="79.81"/>
		<circle id="Ellipse_5" class="st0" cx="146.71" cy="158.32" r="73.68"/>
	</g>
	<g id="Ellipse_4-2" transform="translate(10.877 34.876)">
		<circle id="Ellipse_7" class="st2" cx="144.11" cy="332.4" r="56.97"/>
	</g>
	<path id="Path_9" class="st3" d="M197.86,31.42l-11.77,31.3c-1.4,3.74,4.58,5.35,5.97,1.64l11.76-31.3
		C205.22,29.33,199.24,27.76,197.86,31.42z"/>
	<path id="Path_11" class="st3" d="M269.44,86.62l-29.79,16.66c-3.48,1.94-0.36,7.28,3.12,5.3l29.79-16.66
		C276.04,89.99,272.93,84.64,269.44,86.62z"/>
	<path id="Path_9_1_" class="st3" d="M238.35,52.91l-21.63,25.51c-2.57,3.05,2.51,6.58,5.06,3.56l21.63-25.51
		C245.98,53.42,240.89,49.93,238.35,52.91z"/>
	<path id="Path_16" class="st3" d="M37.41,91.96l29.8,16.66c3.48,1.94,6.6-3.39,3.12-5.3l-29.8-16.66c-1.56-0.71-3.39-0.02-4.1,1.53
		C35.82,89.52,36.23,91.09,37.41,91.96z"/>
	<path id="Path_17" class="st3" d="M66.69,56.96l22.1,25.53c2.65,3.01,6.97-1.38,4.42-4.42l-22.1-25.52
		c-2.65-3.02-6.97,1.38-4.42,4.37V56.96z"/>
	<path id="Path_18" class="st3" d="M106.18,33.07l11.77,31.3c1.38,3.69,7.36,2.09,5.97-1.64l-11.77-31.3
		C110.76,27.73,104.78,29.34,106.18,33.07z"/>
	<path id="Path_19" class="st3" d="M151.9,24.44v33.32c0,1.71,1.38,3.09,3.09,3.09c1.71,0,3.09-1.38,3.09-3.09V24.44
		c0-1.71-1.38-3.09-3.09-3.09C153.28,21.34,151.9,22.73,151.9,24.44z"/>
	<path id="Path_20" class="st3" d="M151.9,5.05v33.32c0,1.71,1.38,3.09,3.09,3.09c1.71,0,3.09-1.38,3.09-3.09V5.05
		c0-1.71-1.38-3.09-3.09-3.09C153.28,1.96,151.9,3.34,151.9,5.05z"/>
	<path id="Path_19_1_" class="st3" d="M38.42,131.3l-32.85-5.59c-1.68-0.29-3.28,0.85-3.57,2.53c-0.29,1.68,0.85,3.28,2.53,3.57
		l32.85,5.59c1.68,0.29,3.28-0.85,3.57-2.53C41.24,133.18,40.1,131.59,38.42,131.3z"/>
	<path id="Path_20_1_" class="st3" d="M57.53,134.55l-32.85-5.59c-1.68-0.29-3.28,0.85-3.57,2.53c-0.29,1.68,0.85,3.28,2.53,3.57
		l32.85,5.59c1.68,0.29,3.28-0.85,3.57-2.53C60.34,136.43,59.21,134.84,57.53,134.55z"/>
	<path id="Path_19_2_" class="st3" d="M268.53,134.87c0.29,1.68,1.88,2.82,3.57,2.53l32.85-5.59c1.68-0.29,2.82-1.88,2.53-3.57
		c-0.29-1.68-1.88-2.82-3.57-2.53l-32.85,5.59C269.38,131.59,268.24,133.18,268.53,134.87z"/>
	<path id="Path_20_2_" class="st3" d="M249.42,138.12c0.29,1.68,1.88,2.82,3.57,2.53l32.85-5.59c1.68-0.29,2.82-1.88,2.53-3.57
		c-0.29-1.68-1.88-2.82-3.57-2.53l-32.85,5.59C250.27,134.84,249.14,136.43,249.42,138.12z"/>
	<g>
		<g>
			<path class="st2" d="M189.73,173.72c-0.34,18.89-15.5,34.66-34.66,34.66c-19.15,0-34.32-15.77-34.66-34.66
				c-0.08-4.26-6.71-4.27-6.63,0c0.4,22.44,18.5,41.32,41.28,41.28c22.78-0.04,40.88-18.78,41.28-41.28
				C196.44,169.46,189.81,169.45,189.73,173.72L189.73,173.72z"/>
		</g>
	</g>
</g>
<text transform="matrix(1 0 0 1 344.5195 326.4091)" class="st4 st5 st6">YouSuite</text>
</svg>
