<?xml version="1.0" encoding="utf-8"?>
<!-- Generator: Adobe Illustrator 23.0.3, SVG Export Plug-In . SVG Version: 6.00 Build 0)  -->
<svg version="1.1" id="Layer_1" xmlns="http://www.w3.org/2000/svg" xmlns:xlink="http://www.w3.org/1999/xlink" x="0px" y="0px"
	 viewBox="0 0 1088.9 424.5" style="enable-background:new 0 0 1088.9 424.5;" xml:space="preserve">
<style type="text/css">
	.st0{fill:none;stroke:#D5E3E1;stroke-width:8.8382;stroke-linejoin:round;}
	.st1{fill:none;stroke:#D5E3E1;stroke-width:20.9554;stroke-linejoin:round;}
	.st2{fill:#D5E3E1;stroke:#D5E3E1;stroke-miterlimit:10;}
	.st3{fill:#D5E3E1;stroke:#D5E3E1;stroke-width:4.4191;}
	.st4{fill:#D5E3E1;}
	.st5{font-family:'InterstateCondensed-Italic';}
	.st6{font-size:241.0634px;}
</style>
<g id="Group_11" transform="translate(0.251 0.25)">
	<g id="Ellipse_2" transform="translate(3.114 14.745)">
		<circle id="Ellipse_2-2" class="st0" cx="151.9" cy="243.2" r="125.6"/>
		<circle id="Ellipse_3" class="st1" cx="151.9" cy="243.2" r="116.2"/>
	</g>
	<g id="Ellipse_3-2" transform="translate(8.293 8.624)">
		<circle id="Ellipse_4" class="st0" cx="146.7" cy="158.3" r="79.8"/>
		<circle id="Ellipse_5" class="st0" cx="146.7" cy="158.3" r="73.7"/>
	</g>
	<g id="Ellipse_4-2" transform="translate(10.877 34.876)">
		<circle id="Ellipse_7" class="st2" cx="144.1" cy="332.4" r="57"/>
	</g>
	<path id="Path_9" class="st3" d="M197.9,31.4l-11.8,31.3c-1.4,3.7,4.6,5.3,6,1.6l11.8-31.3C205.2,29.3,199.2,27.8,197.9,31.4z"/>
	<path id="Path_11" class="st3" d="M269.4,86.6l-29.8,16.7c-3.5,1.9-0.4,7.3,3.1,5.3l29.8-16.7C276,90,272.9,84.6,269.4,86.6z"/>
	<path id="Path_9_1_" class="st3" d="M238.4,52.9l-21.6,25.5c-2.6,3.1,2.5,6.6,5.1,3.6l21.6-25.5C246,53.4,240.9,49.9,238.4,52.9z"
		/>
	<path id="Path_16" class="st3" d="M37.4,92l29.8,16.7c3.5,1.9,6.6-3.4,3.1-5.3L40.5,86.7c-1.6-0.7-3.4,0-4.1,1.5
		C35.8,89.5,36.2,91.1,37.4,92z"/>
	<path id="Path_17" class="st3" d="M66.7,57l22.1,25.5c2.7,3,7-1.4,4.4-4.4L71.1,52.5C68.5,49.5,64.1,53.9,66.7,57L66.7,57z"/>
	<path id="Path_18" class="st3" d="M106.2,33.1l11.8,31.3c1.4,3.7,7.4,2.1,6-1.6l-11.8-31.3C110.8,27.7,104.8,29.3,106.2,33.1z"/>
	<path id="Path_19" class="st3" d="M151.9,24.4v33.3c0,1.7,1.4,3.1,3.1,3.1c1.7,0,3.1-1.4,3.1-3.1V24.4c0-1.7-1.4-3.1-3.1-3.1
		C153.3,21.3,151.9,22.7,151.9,24.4z"/>
	<path id="Path_20" class="st3" d="M151.9,5.1v33.3c0,1.7,1.4,3.1,3.1,3.1c1.7,0,3.1-1.4,3.1-3.1V5.1c0-1.7-1.4-3.1-3.1-3.1
		C153.3,2,151.9,3.3,151.9,5.1z"/>
	<path id="Path_19_1_" class="st3" d="M38.4,131.3l-32.8-5.6c-1.7-0.3-3.3,0.8-3.6,2.5c-0.3,1.7,0.9,3.3,2.5,3.6l32.8,5.6
		c1.7,0.3,3.3-0.9,3.6-2.5C41.2,133.2,40.1,131.6,38.4,131.3z"/>
	<path id="Path_20_1_" class="st3" d="M57.5,134.6L24.7,129c-1.7-0.3-3.3,0.9-3.6,2.5c-0.3,1.7,0.9,3.3,2.5,3.6l32.8,5.6
		c1.7,0.3,3.3-0.9,3.6-2.5C60.3,136.4,59.2,134.8,57.5,134.6z"/>
	<path id="Path_19_2_" class="st3" d="M268.5,134.9c0.3,1.7,1.9,2.8,3.6,2.5l32.9-5.6c1.7-0.3,2.8-1.9,2.5-3.6
		c-0.3-1.7-1.9-2.8-3.6-2.5l-32.9,5.6C269.4,131.6,268.2,133.2,268.5,134.9z"/>
	<path id="Path_20_2_" class="st3" d="M249.4,138.1c0.3,1.7,1.9,2.8,3.6,2.5l32.8-5.6c1.7-0.3,2.8-1.9,2.5-3.6
		c-0.3-1.7-1.9-2.8-3.6-2.5l-32.9,5.6C250.3,134.8,249.1,136.4,249.4,138.1z"/>
	<g>
		<g>
			<path class="st2" d="M189.7,173.7c-0.3,18.9-15.5,34.7-34.7,34.7c-19.1,0-34.3-15.8-34.7-34.7c-0.1-4.3-6.7-4.3-6.6,0
				c0.4,22.4,18.5,41.3,41.3,41.3c22.8,0,40.9-18.8,41.3-41.3C196.4,169.5,189.8,169.4,189.7,173.7L189.7,173.7z"/>
		</g>
	</g>
</g>
<text transform="matrix(1 0 0 1 344.5195 326.4091)" class="st4 st5 st6">YouSuite</text>
</svg>
