<?xml version="1.0" encoding="utf-8"?>
<!-- Generator: Adobe Illustrator 23.0.3, SVG Export Plug-In . SVG Version: 6.00 Build 0)  -->
<svg version="1.1" id="Layer_1" xmlns="http://www.w3.org/2000/svg" xmlns:xlink="http://www.w3.org/1999/xlink" x="0px" y="0px"
	 viewBox="0 0 40.2 55.1" style="enable-background:new 0 0 40.2 55.1;" xml:space="preserve">
<style type="text/css">
	.st0{fill:none;stroke:#658F93;stroke-width:1.1368;stroke-linejoin:round;}
	.st1{fill:none;stroke:#658F93;stroke-width:2.6953;stroke-linejoin:round;}
	.st2{fill:#658F93;}
	.st3{fill:#658F93;stroke:#658F93;stroke-width:0.5684;}
</style>
<g id="Group_11" transform="translate(0.251 0.25)">
	<g id="Ellipse_2" transform="translate(3.114 14.745)">
		<circle id="Ellipse_2-2" class="st0" cx="16.7" cy="18.4" r="16.2"/>
		<circle id="Ellipse_3" class="st1" cx="16.7" cy="18.4" r="14.9"/>
	</g>
	<g id="Ellipse_3-2" transform="translate(8.293 8.624)">
		<circle id="Ellipse_4" class="st0" cx="11.6" cy="12.8" r="10.3"/>
		<circle id="Ellipse_5" class="st0" cx="11.6" cy="12.8" r="9.5"/>
	</g>
	<g id="Ellipse_4-2" transform="translate(10.877 34.876)">
		<circle id="Ellipse_7" class="st2" cx="9" cy="12.3" r="7.3"/>
	</g>
	<path id="Path_9" class="st3" d="M25.4,4l-1.5,4c-0.2,0.5,0.6,0.7,0.8,0.2l1.5-4C26.3,3.7,25.5,3.5,25.4,4z"/>
	<path id="Path_11" class="st3" d="M34.6,11.1l-3.8,2.1c-0.4,0.2,0,0.9,0.4,0.7l3.8-2.1C35.4,11.5,35,10.8,34.6,11.1z"/>
	<path id="Path_9_1_" class="st3" d="M30.6,6.8L27.8,10c-0.3,0.4,0.3,0.8,0.7,0.5l2.8-3.3C31.6,6.8,30.9,6.4,30.6,6.8z"/>
	<path id="Path_16" class="st3" d="M4.7,11.8l3.8,2.1C9,14.2,9.4,13.5,9,13.2l-3.8-2.1c-0.2-0.1-0.4,0-0.5,0.2
		C4.5,11.5,4.6,11.7,4.7,11.8z"/>
	<path id="Path_17" class="st3" d="M8.5,7.3l2.8,3.3c0.3,0.4,0.9-0.2,0.6-0.6L9.1,6.7C8.7,6.3,8.2,6.9,8.5,7.3L8.5,7.3z"/>
	<path id="Path_18" class="st3" d="M13.6,4.2l1.5,4C15.3,8.7,16,8.5,15.9,8l-1.5-4C14.2,3.5,13.4,3.7,13.6,4.2z"/>
	<path id="Path_19" class="st3" d="M19.5,3.1v4.3c0,0.2,0.2,0.4,0.4,0.4c0.2,0,0.4-0.2,0.4-0.4V3.1c0-0.2-0.2-0.4-0.4-0.4
		C19.6,2.7,19.5,2.9,19.5,3.1z"/>
	<path id="Path_20" class="st3" d="M19.5,0.6v4.3c0,0.2,0.2,0.4,0.4,0.4c0.2,0,0.4-0.2,0.4-0.4V0.6c0-0.2-0.2-0.4-0.4-0.4
		C19.6,0.2,19.5,0.4,19.5,0.6z"/>
	<path id="Path_19_1_" class="st3" d="M4.9,16.8l-4.2-0.7c-0.2,0-0.4,0.1-0.5,0.3c0,0.2,0.1,0.4,0.3,0.5l4.2,0.7
		c0.2,0,0.4-0.1,0.5-0.3C5.2,17.1,5.1,16.9,4.9,16.8z"/>
	<path id="Path_20_1_" class="st3" d="M7.3,17.3l-4.2-0.7c-0.2,0-0.4,0.1-0.5,0.3c0,0.2,0.1,0.4,0.3,0.5L7.2,18
		c0.2,0,0.4-0.1,0.5-0.3C7.7,17.5,7.5,17.3,7.3,17.3z"/>
	<path id="Path_19_2_" class="st3" d="M34.5,17.3c0,0.2,0.2,0.4,0.5,0.3l4.2-0.7c0.2,0,0.4-0.2,0.3-0.5c0-0.2-0.2-0.4-0.5-0.3
		l-4.2,0.7C34.6,16.9,34.4,17.1,34.5,17.3z"/>
	<path id="Path_20_2_" class="st3" d="M32,17.7c0,0.2,0.2,0.4,0.5,0.3l4.2-0.7c0.2,0,0.4-0.2,0.3-0.5c0-0.2-0.2-0.4-0.5-0.3
		l-4.2,0.7C32.1,17.3,32,17.5,32,17.7z"/>
	<g>
		<g>
			<path class="st2" d="M24.3,22.3c-0.3,5.7-8.6,5.7-8.9,0c0-0.5-0.9-0.5-0.9,0c0.2,2.9,2.3,5.3,5.3,5.3c3,0,5.2-2.4,5.3-5.3
				C25.2,21.8,24.3,21.8,24.3,22.3L24.3,22.3z"/>
		</g>
	</g>
</g>
</svg>
