<svg id="Layer_1" data-name="Layer 1" xmlns="http://www.w3.org/2000/svg" width="18.05in" height="6.26in" viewBox="0 0 1299.81 450.64">
  <title>Artboard 1</title>
  <g id="Group_11" data-name="Group 11">
    <g id="Ellipse_2" data-name="Ellipse 2">
      <circle id="Ellipse_2-2" data-name="Ellipse 2-2" cx="261.53" cy="270.68" r="125.58" fill="none" stroke="#d5e3e1" stroke-linejoin="round" stroke-width="8.84"/>
      <circle id="Ellipse_3" data-name="Ellipse 3" cx="261.53" cy="270.69" r="116.17" fill="none" stroke="#d5e3e1" stroke-linejoin="round" stroke-width="20.96"/>
    </g>
    <g id="Ellipse_3-2" data-name="Ellipse 3-2">
      <circle id="Ellipse_4" data-name="Ellipse 4" cx="261.53" cy="179.65" r="79.81" fill="none" stroke="#d5e3e1" stroke-linejoin="round" stroke-width="8.84"/>
      <circle id="Ellipse_5" data-name="Ellipse 5" cx="261.54" cy="179.66" r="73.68" fill="none" stroke="#d5e3e1" stroke-linejoin="round" stroke-width="8.84"/>
    </g>
    <g id="Ellipse_4-2" data-name="Ellipse 4-2">
      <circle id="Ellipse_7" data-name="Ellipse 7" cx="261.52" cy="379.99" r="56.97" fill="#d5e3e1" stroke="#d5e3e1" stroke-miterlimit="10"/>
    </g>
    <path id="Path_9" data-name="Path 9" d="M304.39,44.13l-11.77,31.3c-1.4,3.74,4.58,5.35,6,1.64l11.76-31.3C311.75,42,305.77,40.47,304.39,44.13Z" fill="#d5e3e1" stroke="#d5e3e1" stroke-width="4.42"/>
    <path id="Path_11" data-name="Path 11" d="M376,99.33,346.18,116c-3.48,1.94-.36,7.28,3.12,5.3l29.79-16.66C382.57,102.7,379.46,97.35,376,99.33Z" fill="#d5e3e1" stroke="#d5e3e1" stroke-width="4.42"/>
    <path id="Path_9-2" data-name="Path 9" d="M344.88,65.62,323.25,91.13c-2.57,3.05,2.51,6.58,5.06,3.56l21.63-25.51C352.51,66.13,347.42,62.64,344.88,65.62Z" fill="#d5e3e1" stroke="#d5e3e1" stroke-width="4.42"/>
    <path id="Path_16" data-name="Path 16" d="M143.94,104.67l29.8,16.66c3.48,1.94,6.6-3.39,3.12-5.3l-29.8-16.66a3.09,3.09,0,0,0-3.12,5.3Z" fill="#d5e3e1" stroke="#d5e3e1" stroke-width="4.42"/>
    <path id="Path_17" data-name="Path 17" d="M173.22,69.67l22.1,25.53c2.65,3,7-1.38,4.42-4.42l-22.1-25.52c-2.65-3-7,1.38-4.42,4.37Z" fill="#d5e3e1" stroke="#d5e3e1" stroke-width="4.42"/>
    <path id="Path_18" data-name="Path 18" d="M212.71,45.78l11.77,31.3c1.38,3.69,7.36,2.09,6-1.64l-11.77-31.3C217.29,40.44,211.31,42.05,212.71,45.78Z" fill="#d5e3e1" stroke="#d5e3e1" stroke-width="4.42"/>
    <path id="Path_19" data-name="Path 19" d="M258.43,37.15V70.47a3.09,3.09,0,0,0,6.18,0V37.15a3.09,3.09,0,0,0-6.18,0Z" fill="#d5e3e1" stroke="#d5e3e1" stroke-width="4.42"/>
    <path id="Path_20" data-name="Path 20" d="M258.43,17.76V51.08a3.09,3.09,0,0,0,6.18,0V17.76a3.09,3.09,0,0,0-6.18,0Z" fill="#d5e3e1" stroke="#d5e3e1" stroke-width="4.42"/>
    <path id="Path_19-2" data-name="Path 19" d="M145,144l-32.85-5.59a3.09,3.09,0,1,0-1,6.1l32.85,5.59a3.09,3.09,0,0,0,1-6.1Z" fill="#d5e3e1" stroke="#d5e3e1" stroke-width="4.42"/>
    <path id="Path_20-2" data-name="Path 20" d="M164.06,147.26l-32.85-5.59a3.09,3.09,0,1,0-1,6.1L163,153.36a3.09,3.09,0,1,0,1-6.1Z" fill="#d5e3e1" stroke="#d5e3e1" stroke-width="4.42"/>
    <path id="Path_19-3" data-name="Path 19" d="M375.06,147.58a3.09,3.09,0,0,0,3.57,2.53l32.85-5.59a3.09,3.09,0,0,0-1-6.1L377.59,144A3.09,3.09,0,0,0,375.06,147.58Z" fill="#d5e3e1" stroke="#d5e3e1" stroke-width="4.42"/>
    <path id="Path_20-3" data-name="Path 20" d="M356,150.83a3.09,3.09,0,0,0,3.57,2.53l32.85-5.59a3.09,3.09,0,0,0-1-6.1l-32.85,5.59A3.1,3.1,0,0,0,356,150.83Z" fill="#d5e3e1" stroke="#d5e3e1" stroke-width="4.42"/>
    <path d="M296.26,186.43c-.34,18.89-15.5,34.66-34.66,34.66s-34.32-15.77-34.66-34.66c-.08-4.26-6.71-4.27-6.63,0,.4,22.44,18.5,41.32,41.28,41.28s40.88-18.78,41.28-41.28c.1-4.26-6.53-4.27-6.61,0Z" fill="#d5e3e1" stroke="#d5e3e1" stroke-miterlimit="10"/>
  </g>
  <g style="isolation: isolate">
    <path d="M573.74,170.13l-58.09,93.29-13.26,75.45H478.76L492,264.14l-26.51-94h26.75l8.92,35.2c2.17,8.43,6.27,29.4,7,35.19,2.65-6,14.23-26.76,19.29-35.44l20.49-35Z" fill="#d5e3e1"/>
    <path d="M586.28,341.52c-22.66,0-37.61-15.67-37.61-48.45,0-51.1,23.87-83.41,55.69-83.41,22.17,0,37.6,15.43,37.6,46.77C642,308.26,619.06,341.52,586.28,341.52Zm32.06-82.44c0-17.84-6-27.24-17.36-27.24-16.87,0-28.93,26.76-28.93,60.27,0,18.08,6,27.24,17.12,27.24C607.49,319.35,618.34,289.7,618.34,259.08Z" fill="#d5e3e1"/>
    <path d="M732.84,338.87H709.7l1.45-8.68c-5.55,6.27-14.71,11.33-24.59,11.33-19,0-27.48-9.64-27.48-28.92A108.45,108.45,0,0,1,661,294l14.47-81.71h23.14l-13.74,77.86a95.79,95.79,0,0,0-1.69,14.46c0,10.61,3.14,14.95,11.57,14.95,7.23,0,14.47-4.1,20.49-11.57l16.88-95.7h23.14Z" fill="#d5e3e1"/>
    <path d="M799.61,341c-20.73,0-35.19-12.05-43.15-27l20.73-14.46c6,13,15.19,18.56,25.56,18.56,14.22,0,23.62-10.37,23.62-25.55,0-10.13-5.3-19.53-21.94-32.06-14.7-11.33-26.27-24.59-26.27-43.39,0-28.93,19.77-49.66,48.45-49.66,18.08,0,31.82,8,39.54,22.9l-20,15c-6-10.37-12.78-14.47-21.94-14.47-12.53,0-21.69,8.2-21.69,21.7,0,9.4,4.82,16.39,19.28,28,16.15,12.77,29.17,27,29.17,48.21C851,319.59,831.91,341,799.61,341Z" fill="#d5e3e1"/>
    <path d="M941.6,338.87H918.46l1.44-8.68a33.88,33.88,0,0,1-24.59,11.33c-19,0-27.48-9.64-27.48-28.92A108.53,108.53,0,0,1,869.76,294l14.47-81.71h23.14l-13.74,77.86a94.51,94.51,0,0,0-1.69,14.46c0,10.61,3.13,14.95,11.57,14.95,7.23,0,14.46-4.1,20.49-11.57l16.87-95.7H964Z" fill="#d5e3e1"/>
    <path d="M994.87,338.87H971.73l22.42-126.55h23.14Zm30.86-160.54a14.35,14.35,0,1,1-14.23-14.47A14.41,14.41,0,0,1,1025.73,178.33Z" fill="#d5e3e1"/>
    <path d="M1079.48,314.28,1073,335.74a38.37,38.37,0,0,1-21,5.78c-16.88,0-22.9-11.81-19.29-32.3L1046,234h-13.74l3.86-21.69h13.74l6.51-36.89,25.31-12.29L1073,212.32h24.35L1093.46,234h-24.35l-13,73c-1.45,8,1.44,12.54,7.71,12.54A27.08,27.08,0,0,0,1079.48,314.28Z" fill="#d5e3e1"/>
    <path d="M1185.31,275.23c-.24,2.17-1,5.79-1.45,8.2h-66.29c-2.17,25.07,5.06,35.92,18.56,35.92,9.88,0,16.87-3.14,24.35-9.41l12,14.71c-9.88,9.64-23.62,16.87-39.77,16.87-25.8,0-38.57-18.08-38.57-47.73,0-56.16,26-84.13,55-84.13,21.93,0,37.84,16.15,37.36,49.18A135.23,135.23,0,0,1,1185.31,275.23Zm-22.18-11.81c2.17-18.8-3.62-32.06-16.63-32.06-11.82,0-21,10.36-26,32.06Z" fill="#d5e3e1"/>
  </g>
</svg>
