<?xml version="1.0" encoding="utf-8"?>
<!-- Generator: Adobe Illustrator 23.0.3, SVG Export Plug-In . SVG Version: 6.00 Build 0)  -->
<svg version="1.1" id="Layer_1" xmlns="http://www.w3.org/2000/svg" xmlns:xlink="http://www.w3.org/1999/xlink" x="0px" y="0px"
	 viewBox="0 0 1299.8 450.6" style="enable-background:new 0 0 1299.8 450.6;" xml:space="preserve">
<style type="text/css">
	.st0{fill:none;stroke:#D5E3E1;stroke-width:8.8382;stroke-linejoin:round;}
	.st1{fill:none;stroke:#D5E3E1;stroke-width:20.9554;stroke-linejoin:round;}
	.st2{fill:#D5E3E1;stroke:#D5E3E1;stroke-miterlimit:10;}
	.st3{fill:#D5E3E1;stroke:#D5E3E1;stroke-width:4.4191;}
	.st4{fill:#D5E3E1;}
	.st5{font-family:'InterstateCondensed-Italic';}
	.st6{font-size:241.0634px;}
</style>
<g id="Group_11" transform="translate(0.251 0.25)">
	<g id="Ellipse_2" transform="translate(3.114 14.745)">
		<circle id="Ellipse_2-2" class="st0" cx="258.2" cy="255.7" r="125.6"/>
		<circle id="Ellipse_3" class="st1" cx="258.2" cy="255.7" r="116.2"/>
	</g>
	<g id="Ellipse_3-2" transform="translate(8.293 8.624)">
		<circle id="Ellipse_4" class="st0" cx="253" cy="170.8" r="79.8"/>
		<circle id="Ellipse_5" class="st0" cx="253" cy="170.8" r="73.7"/>
	</g>
	<g id="Ellipse_4-2" transform="translate(10.877 34.876)">
		<circle id="Ellipse_7" class="st2" cx="250.4" cy="344.9" r="57"/>
	</g>
	<path id="Path_9" class="st3" d="M304.1,43.9l-11.8,31.3c-1.4,3.7,4.6,5.3,6,1.6l11.8-31.3C311.5,41.8,305.5,40.2,304.1,43.9z"/>
	<path id="Path_11" class="st3" d="M375.7,99.1l-29.8,16.7c-3.5,1.9-0.4,7.3,3.1,5.3l29.8-16.7C382.3,102.5,379.2,97.1,375.7,99.1z"
		/>
	<path id="Path_9_1_" class="st3" d="M344.6,65.4L323,90.9c-2.6,3.1,2.5,6.6,5.1,3.6l21.6-25.5C352.3,65.9,347.2,62.4,344.6,65.4z"
		/>
	<path id="Path_16" class="st3" d="M143.7,104.4l29.8,16.7c3.5,1.9,6.6-3.4,3.1-5.3l-29.8-16.7c-1.6-0.7-3.4,0-4.1,1.5
		C142.1,102,142.5,103.6,143.7,104.4z"/>
	<path id="Path_17" class="st3" d="M173,69.4L195.1,95c2.7,3,7-1.4,4.4-4.4L177.4,65C174.7,62,170.4,66.4,173,69.4L173,69.4z"/>
	<path id="Path_18" class="st3" d="M212.5,45.5l11.8,31.3c1.4,3.7,7.4,2.1,6-1.6l-11.8-31.3C217,40.2,211.1,41.8,212.5,45.5z"/>
	<path id="Path_19" class="st3" d="M258.2,36.9v33.3c0,1.7,1.4,3.1,3.1,3.1s3.1-1.4,3.1-3.1V36.9c0-1.7-1.4-3.1-3.1-3.1
		C259.6,33.8,258.2,35.2,258.2,36.9z"/>
	<path id="Path_20" class="st3" d="M258.2,17.5v33.3c0,1.7,1.4,3.1,3.1,3.1s3.1-1.4,3.1-3.1V17.5c0-1.7-1.4-3.1-3.1-3.1
		S258.2,15.8,258.2,17.5z"/>
	<path id="Path_19_1_" class="st3" d="M144.7,143.8l-32.9-5.6c-1.7-0.3-3.3,0.8-3.6,2.5c-0.3,1.7,0.8,3.3,2.5,3.6l32.8,5.6
		c1.7,0.3,3.3-0.9,3.6-2.5C147.5,145.6,146.4,144.1,144.7,143.8z"/>
	<path id="Path_20_1_" class="st3" d="M163.8,147l-32.9-5.6c-1.7-0.3-3.3,0.9-3.6,2.5s0.8,3.3,2.5,3.6l32.8,5.6
		c1.7,0.3,3.3-0.9,3.6-2.5C166.6,148.9,165.5,147.3,163.8,147z"/>
	<path id="Path_19_2_" class="st3" d="M374.8,147.3c0.3,1.7,1.9,2.8,3.6,2.5l32.9-5.6c1.7-0.3,2.8-1.9,2.5-3.6
		c-0.3-1.7-1.9-2.8-3.6-2.5l-32.9,5.6C375.7,144.1,374.5,145.6,374.8,147.3z"/>
	<path id="Path_20_2_" class="st3" d="M355.7,150.6c0.3,1.7,1.9,2.8,3.6,2.5l32.9-5.6c1.7-0.3,2.8-1.9,2.5-3.6
		c-0.3-1.7-1.9-2.8-3.6-2.5l-32.9,5.6C356.6,147.3,355.4,148.9,355.7,150.6z"/>
	<g>
		<g>
			<path class="st2" d="M296,186.2c-0.3,18.9-15.5,34.7-34.7,34.7c-19.1,0-34.3-15.8-34.7-34.7c-0.1-4.3-6.7-4.3-6.6,0
				c0.4,22.4,18.5,41.3,41.3,41.3c22.8,0,40.9-18.8,41.3-41.3C302.7,181.9,296.1,181.9,296,186.2L296,186.2z"/>
		</g>
	</g>
</g>
<text transform="matrix(1 0 0 1 450.8013 338.8709)" class="st4 st5 st6">YouSuite</text>
</svg>
